<svg xmlns="http://www.w3.org/2000/svg" width="612px" height="792px"><path fill="#F68A21" d="M574.827,94.688c1.18,11.381-39.574,38.589-50.132,47.451c-103.891,86.959-183.601,203.379-224.148,349.704c-7.195,26.112-8.109,65.709-17.723,77.061c-5.515,6.58-35.27,6.876-44.175-5.898c-10.675-15.382-12.149-85.803-14.745-109.662c-4.335-39.034-6.193-75.875-14.745-106.699c-9.466,21.874-11.737,43.184-17.723,68.168c-5.456,22.644-8.699,79.254-32.468,82.988c-0.826,0.147-26.835-8.447-32.379-14.85c-12.504-14.345-13.035-53.912-17.753-79.994c-10.203-57.231-14.98-98.222-23.591-168.939c-3.479-28.897-17.458-69.858-5.898-77.06c5.367-3.349,34.591,7.499,38.366,11.826c16.337,19.028,14.833,75.371,17.723,100.771c4.512,39.953,7.048,73.651,11.766,103.734c23.975-29.253,13.654-106.461,53.081-112.597c11.825-1.867,35.24,12.152,41.285,20.717c22.235,31.684,13.712,105.039,26.541,145.258C329.741,295.251,410.631,148.185,536.491,73.94C542.949,70.146,573.884,86.062,574.827,94.688z"/></svg>